<svg xmlns="http://www.w3.org/2000/svg" xmlns:xlink="http://www.w3.org/1999/xlink" width="500" zoomAndPan="magnify" viewBox="0 0 375 374.999991" height="500" preserveAspectRatio="xMidYMid meet" version="1.2"><defs><clipPath id="2566f9d6d6"><path d="M 160 133 L 264.191406 133 L 264.191406 209 L 160 209 Z M 160 133 " data-index="0"></path></clipPath><clipPath id="7b39d48605"><path d="M 143.441406 130.585938 L 239 130.585938 L 239 225.835938 L 143.441406 225.835938 Z M 143.441406 130.585938 " data-index="1"></path></clipPath><clipPath id="23294d15d9"><path d="M 171 178 L 214 178 L 214 241 L 171 241 Z M 171 178 " data-index="2"></path></clipPath><clipPath id="90e403a345"><path d="M 171.234375 185.992188 L 193.953125 178.257812 L 213.773438 236.476562 L 191.054688 244.210938 Z M 171.234375 185.992188 " data-index="3"></path></clipPath><clipPath id="68ed20789f"><path d="M 122.425781 192.546875 L 221.113281 158.945312 L 247.699219 237.042969 L 149.015625 270.644531 Z M 122.425781 192.546875 " data-index="4"></path></clipPath><clipPath id="a08cf8ee33"><path d="M 171 178 L 214 178 L 214 245 L 171 245 Z M 171 178 " data-index="5"></path></clipPath><clipPath id="ce58630fa1"><path d="M 171.234375 185.992188 L 193.953125 178.257812 L 213.773438 236.476562 L 191.054688 244.210938 Z M 171.234375 185.992188 " data-index="6"></path></clipPath><clipPath id="2e705a8602"><path d="M 122.425781 192.546875 L 221.113281 158.945312 L 247.699219 237.042969 L 149.015625 270.644531 Z M 122.425781 192.546875 " data-index="7"></path></clipPath></defs><g id="f37f14abc2"><rect x="0" width="375" y="0" height="374.999991" style="fill:#ffffff;fill-opacity:1;stroke:none;"></rect><rect x="0" width="375" y="0" height="374.999991" style="fill:#ffffff;fill-opacity:1;stroke:none;"></rect><g clip-rule="nonzero" clip-path="url(#2566f9d6d6)"><path style=" stroke:none;fill-rule:nonzero;fill:#50b8d2;fill-opacity:1;" d="M 264.035156 145.679688 L 258.667969 134.042969 C 258.46875 133.621094 257.957031 133.449219 257.546875 133.667969 C 250.960938 137.207031 244.507812 140.96875 238.648438 145.519531 C 222.738281 157.441406 209.308594 172.726562 199.433594 189.984375 C 199.316406 190.191406 199.027344 190.1875 198.914062 189.980469 C 191.472656 176.324219 179.722656 164.441406 165.539062 158.035156 C 165.097656 157.835938 164.582031 158.070312 164.433594 158.53125 C 163.609375 161.089844 161.1875 168.632812 160.394531 171.097656 C 160.253906 171.53125 160.503906 171.980469 160.941406 172.113281 C 164.15625 173.078125 167.265625 174.601562 170.226562 176.246094 C 173.535156 178.09375 177 180.519531 179.910156 182.980469 C 184.523438 186.835938 188.574219 191.421875 192.019531 196.398438 C 193.886719 199.101562 195.492188 201.976562 196.925781 204.929688 C 197.527344 206.167969 198.136719 207.421875 198.464844 208.097656 C 198.574219 208.320312 198.875 208.324219 198.996094 208.113281 C 200.761719 205.027344 203.636719 199.753906 205.394531 197.066406 C 215.894531 180.808594 229.773438 166.589844 246.050781 156.140625 C 251.609375 152.40625 257.613281 149.484375 263.636719 146.753906 C 264.046875 146.566406 264.222656 146.085938 264.035156 145.679688 " data-index="8"></path></g><g clip-rule="nonzero" clip-path="url(#7b39d48605)"><path style=" stroke:none;fill-rule:nonzero;fill:#50b8d2;fill-opacity:1;" d="M 230.296875 213.675781 C 230.296875 215.84375 228.539062 217.601562 226.371094 217.601562 L 155.132812 217.601562 C 152.964844 217.601562 151.210938 215.84375 151.210938 213.675781 L 151.210938 142.441406 C 151.210938 140.273438 152.964844 138.511719 155.132812 138.511719 L 226.371094 138.511719 C 227.910156 138.511719 229.242188 139.402344 229.886719 140.695312 C 230.941406 139.847656 232.003906 139.027344 233.078125 138.222656 C 234.074219 137.449219 235.085938 136.699219 236.097656 135.980469 C 234.011719 132.828125 230.429688 130.746094 226.371094 130.746094 L 155.132812 130.746094 C 148.691406 130.746094 143.441406 135.992188 143.441406 142.441406 L 143.441406 213.675781 C 143.441406 220.121094 148.691406 225.367188 155.132812 225.367188 L 226.371094 225.367188 C 232.816406 225.367188 238.0625 220.121094 238.0625 213.675781 L 238.0625 173.480469 C 235.386719 175.757812 232.796875 178.15625 230.296875 180.679688 L 230.296875 213.675781 " data-index="9"></path></g><g clip-rule="nonzero" clip-path="url(#23294d15d9)"><g clip-rule="nonzero" clip-path="url(#90e403a345)"><g clip-rule="nonzero" clip-path="url(#68ed20789f)"><path style=" stroke:none;fill-rule:nonzero;fill:#50b8d2;fill-opacity:1;" d="M 225.183594 171.324219 L 217.558594 163.308594 C 217.28125 163.019531 216.8125 163.019531 216.539062 163.316406 C 212.140625 168.042969 207.914062 172.910156 204.390625 178.261719 C 194.707031 192.433594 187.980469 208.660156 184.714844 225.515625 C 184.675781 225.714844 184.4375 225.792969 184.289062 225.652344 C 174.40625 216.5625 161.5 210.121094 148.121094 208.832031 C 147.707031 208.792969 147.347656 209.125 147.355469 209.542969 C 147.394531 211.867188 147.515625 218.703125 147.554688 220.9375 C 147.558594 221.332031 147.886719 221.628906 148.28125 221.617188 C 151.179688 221.511719 154.140625 221.890625 157.023438 222.410156 C 160.242188 223 163.746094 224.019531 166.808594 225.21875 C 171.652344 227.089844 176.238281 229.710938 180.441406 232.820312 C 182.71875 234.507812 184.832031 236.410156 186.824219 238.425781 C 187.65625 239.269531 188.503906 240.125 188.964844 240.585938 C 189.113281 240.738281 189.359375 240.65625 189.402344 240.453125 C 189.984375 237.4375 190.867188 232.324219 191.554688 229.640625 C 195.613281 213.433594 203 197.949219 213.398438 184.882812 C 216.902344 180.28125 220.992188 176.222656 225.15625 172.316406 C 225.4375 172.050781 225.453125 171.605469 225.183594 171.324219 " data-index="10"></path></g></g></g><g clip-rule="nonzero" clip-path="url(#a08cf8ee33)"><g clip-rule="nonzero" clip-path="url(#ce58630fa1)"><g clip-rule="nonzero" clip-path="url(#2e705a8602)"><path style=" stroke:none;fill-rule:nonzero;fill:#50b8d2;fill-opacity:1;" d="M 216.527344 236.285156 C 217.132812 238.058594 216.1875 239.984375 214.414062 240.589844 L 156.195312 260.410156 C 154.421875 261.011719 152.496094 260.0625 151.894531 258.292969 L 132.074219 200.074219 C 131.46875 198.300781 132.414062 196.375 134.1875 195.773438 L 192.40625 175.949219 C 193.664062 175.523438 195 175.878906 195.886719 176.757812 C 196.511719 175.769531 197.15625 174.804688 197.808594 173.847656 C 198.40625 172.9375 199.023438 172.042969 199.652344 171.171875 C 197.070312 169.179688 193.5625 168.472656 190.246094 169.601562 L 132.027344 189.421875 C 126.757812 191.214844 123.929688 196.964844 125.722656 202.234375 L 145.542969 260.453125 C 147.339844 265.722656 153.085938 268.550781 158.355469 266.757812 L 216.574219 246.933594 C 221.84375 245.140625 224.671875 239.394531 222.878906 234.125 L 211.695312 201.277344 C 210.140625 203.878906 208.691406 206.5625 207.347656 209.320312 L 216.527344 236.285156 " data-index="11"></path></g></g></g><g style="fill:#434142;fill-opacity:1;"><g transform="translate(51.348297, 207.204944)"><path style="stroke:none" d="M 18.71875 0.890625 C 15.832031 0.828125 13.035156 0.328125 10.328125 -0.609375 C 7.617188 -1.554688 5.410156 -3.046875 3.703125 -5.078125 C 1.992188 -7.109375 1.140625 -9.773438 1.140625 -13.078125 C 1.140625 -16.316406 2.007812 -18.863281 3.75 -20.71875 C 5.488281 -22.570312 7.753906 -23.910156 10.546875 -24.734375 C 13.347656 -25.554688 16.28125 -25.96875 19.34375 -25.96875 L 32.6875 -25.96875 C 31.914062 -28.4375 30.46875 -30.242188 28.34375 -31.390625 C 26.226562 -32.546875 23.960938 -33.125 21.546875 -33.125 C 19.429688 -33.125 17.367188 -32.695312 15.359375 -31.84375 C 13.359375 -30.988281 11.769531 -29.796875 10.59375 -28.265625 L 3.359375 -34.53125 C 5.597656 -38.007812 8.421875 -40.363281 11.828125 -41.59375 C 15.242188 -42.832031 18.75 -43.453125 22.34375 -43.453125 C 25.050781 -43.453125 27.710938 -43.054688 30.328125 -42.265625 C 32.953125 -41.472656 35.320312 -40.296875 37.4375 -38.734375 C 39.5625 -37.171875 41.253906 -35.238281 42.515625 -32.9375 C 43.785156 -30.644531 44.421875 -28 44.421875 -25 L 44.421875 -9.015625 L 44.875 0 L 34.625 0 L 33.5625 -5.921875 C 32.09375 -3.617188 29.972656 -1.90625 27.203125 -0.78125 C 24.429688 0.332031 21.601562 0.890625 18.71875 0.890625 Z M 19.875 -8.828125 C 21.644531 -8.828125 23.46875 -9.0625 25.34375 -9.53125 C 27.226562 -10.007812 28.890625 -10.894531 30.328125 -12.1875 C 31.773438 -13.476562 32.648438 -15.304688 32.953125 -17.671875 L 18.984375 -17.671875 C 17.453125 -17.671875 15.992188 -17.285156 14.609375 -16.515625 C 13.234375 -15.753906 12.546875 -14.632812 12.546875 -13.15625 C 12.546875 -12.101562 12.957031 -11.25 13.78125 -10.59375 C 14.601562 -9.945312 15.585938 -9.488281 16.734375 -9.21875 C 17.878906 -8.957031 18.925781 -8.828125 19.875 -8.828125 Z M 19.875 -8.828125 " data-index="12"></path></g></g><g style="fill:#434142;fill-opacity:1;"><g transform="translate(101.770468, 207.204944)"><path style="stroke:none" d="M 3.53125 19.78125 L 3.53125 -42.046875 L 13.078125 -42.046875 L 14.21875 -36.21875 C 15.925781 -38.800781 18.085938 -40.578125 20.703125 -41.546875 C 23.328125 -42.523438 25.992188 -42.925781 28.703125 -42.75 C 33.535156 -42.457031 37.484375 -41.21875 40.546875 -39.03125 C 43.609375 -36.851562 45.890625 -34.175781 47.390625 -31 C 48.890625 -27.820312 49.640625 -24.492188 49.640625 -21.015625 C 49.640625 -16.953125 48.695312 -13.269531 46.8125 -9.96875 C 44.925781 -6.675781 42.273438 -4.054688 38.859375 -2.109375 C 35.441406 -0.171875 31.410156 0.796875 26.765625 0.796875 C 24.460938 0.796875 22.296875 0.398438 20.265625 -0.390625 C 18.234375 -1.191406 16.453125 -2.710938 14.921875 -4.953125 L 14.921875 19.78125 Z M 26.40625 -9.28125 C 29.0625 -9.28125 31.253906 -9.851562 32.984375 -11 C 34.722656 -12.144531 36.019531 -13.613281 36.875 -15.40625 C 37.726562 -17.207031 38.15625 -19.078125 38.15625 -21.015625 C 38.15625 -22.898438 37.726562 -24.738281 36.875 -26.53125 C 36.019531 -28.332031 34.722656 -29.820312 32.984375 -31 C 31.253906 -32.175781 29.0625 -32.765625 26.40625 -32.765625 C 22.757812 -32.765625 19.859375 -31.644531 17.703125 -29.40625 C 15.554688 -27.175781 14.484375 -24.410156 14.484375 -21.109375 C 14.484375 -17.804688 15.523438 -15.007812 17.609375 -12.71875 C 19.703125 -10.425781 22.632812 -9.28125 26.40625 -9.28125 Z M 26.40625 -9.28125 " data-index="13"></path></g></g><g style="fill:#434142;fill-opacity:1;"><g transform="translate(155.813132, 207.204944)"><path style="stroke:none" d="M 3.53125 0 L 3.53125 -61.828125 L 14.921875 -61.828125 L 14.921875 0 Z M 3.53125 0 " data-index="14"></path></g></g><g style="fill:#434142;fill-opacity:1;"><g transform="translate(176.669645, 207.204944)"><path style="stroke:none" d="" data-index="15"></path></g></g><g style="fill:#434142;fill-opacity:1;"><g transform="translate(200.776913, 207.204944)"><path style="stroke:none" d="" data-index="16"></path></g></g><g style="fill:#434142;fill-opacity:1;"><g transform="translate(224.896725, 207.204944)"><path style="stroke:none" d="M 3.53125 0 L 3.53125 -61.828125 L 14.84375 -61.828125 L 14.84375 -24.203125 L 20.578125 -31.09375 L 32.421875 -42.046875 L 46.8125 -42.046875 L 46.8125 -41.609375 L 26.9375 -23.046875 L 47.96875 -0.265625 L 47.96875 0 L 34.71875 0 L 19.25 -16.78125 L 14.921875 -12.71875 L 14.921875 0 Z M 3.53125 0 " data-index="17"></path></g></g><g style="fill:#434142;fill-opacity:1;"><g transform="translate(273.199565, 207.204944)"><path style="stroke:none" d="M 18.71875 0.890625 C 15.832031 0.828125 13.035156 0.328125 10.328125 -0.609375 C 7.617188 -1.554688 5.410156 -3.046875 3.703125 -5.078125 C 1.992188 -7.109375 1.140625 -9.773438 1.140625 -13.078125 C 1.140625 -16.316406 2.007812 -18.863281 3.75 -20.71875 C 5.488281 -22.570312 7.753906 -23.910156 10.546875 -24.734375 C 13.347656 -25.554688 16.28125 -25.96875 19.34375 -25.96875 L 32.6875 -25.96875 C 31.914062 -28.4375 30.46875 -30.242188 28.34375 -31.390625 C 26.226562 -32.546875 23.960938 -33.125 21.546875 -33.125 C 19.429688 -33.125 17.367188 -32.695312 15.359375 -31.84375 C 13.359375 -30.988281 11.769531 -29.796875 10.59375 -28.265625 L 3.359375 -34.53125 C 5.597656 -38.007812 8.421875 -40.363281 11.828125 -41.59375 C 15.242188 -42.832031 18.75 -43.453125 22.34375 -43.453125 C 25.050781 -43.453125 27.710938 -43.054688 30.328125 -42.265625 C 32.953125 -41.472656 35.320312 -40.296875 37.4375 -38.734375 C 39.5625 -37.171875 41.253906 -35.238281 42.515625 -32.9375 C 43.785156 -30.644531 44.421875 -28 44.421875 -25 L 44.421875 -9.015625 L 44.875 0 L 34.625 0 L 33.5625 -5.921875 C 32.09375 -3.617188 29.972656 -1.90625 27.203125 -0.78125 C 24.429688 0.332031 21.601562 0.890625 18.71875 0.890625 Z M 19.875 -8.828125 C 21.644531 -8.828125 23.46875 -9.0625 25.34375 -9.53125 C 27.226562 -10.007812 28.890625 -10.894531 30.328125 -12.1875 C 31.773438 -13.476562 32.648438 -15.304688 32.953125 -17.671875 L 18.984375 -17.671875 C 17.453125 -17.671875 15.992188 -17.285156 14.609375 -16.515625 C 13.234375 -15.753906 12.546875 -14.632812 12.546875 -13.15625 C 12.546875 -12.101562 12.957031 -11.25 13.78125 -10.59375 C 14.601562 -9.945312 15.585938 -9.488281 16.734375 -9.21875 C 17.878906 -8.957031 18.925781 -8.828125 19.875 -8.828125 Z M 19.875 -8.828125 " data-index="18"></path></g></g></g></svg>